<mxfile host="app.diagrams.net" modified="2023-05-19T03:37:45.368Z" agent="Mozilla/5.0 (Windows NT 10.0; Win64; x64) AppleWebKit/537.36 (KHTML, like Gecko) Chrome/113.0.0.0 Safari/537.36" etag="K7kZBlm0qayCfh5WLsme" version="21.3.2" type="device">
  <diagram name="Page-1" id="13e1069c-82ec-6db2-03f1-153e76fe0fe0">
    <mxGraphModel dx="1615" dy="865" grid="1" gridSize="10" guides="1" tooltips="1" connect="1" arrows="1" fold="1" page="1" pageScale="1" pageWidth="1100" pageHeight="850" background="none" math="0" shadow="0">
      <root>
        <mxCell id="0" />
        <mxCell id="1" parent="0" />
        <mxCell id="7baba1c4bc27f4b0-2" value="BlocksController (BsC)" style="shape=umlLifeline;perimeter=lifelinePerimeter;whiteSpace=wrap;html=1;container=1;collapsible=0;recursiveResize=0;outlineConnect=0;rounded=1;shadow=0;comic=0;labelBackgroundColor=none;strokeWidth=1;fontFamily=Verdana;fontSize=12;align=center;" parent="1" vertex="1">
          <mxGeometry x="240" y="80" width="100" height="580" as="geometry" />
        </mxCell>
        <mxCell id="7baba1c4bc27f4b0-10" value="" style="html=1;points=[];perimeter=orthogonalPerimeter;rounded=0;shadow=0;comic=0;labelBackgroundColor=none;strokeWidth=1;fontFamily=Verdana;fontSize=12;align=center;" parent="7baba1c4bc27f4b0-2" vertex="1">
          <mxGeometry x="45" y="78" width="10" height="482" as="geometry" />
        </mxCell>
        <mxCell id="zbMBryDadHEK504ndSh6-4" value="" style="html=1;points=[];perimeter=orthogonalPerimeter;rounded=0;shadow=0;comic=0;labelBackgroundColor=none;strokeWidth=1;fontFamily=Verdana;fontSize=12;align=center;" vertex="1" parent="7baba1c4bc27f4b0-2">
          <mxGeometry x="50" y="123" width="10" height="27" as="geometry" />
        </mxCell>
        <mxCell id="zbMBryDadHEK504ndSh6-41" value="" style="html=1;verticalAlign=bottom;endArrow=block;entryX=0;entryY=0;labelBackgroundColor=none;fontFamily=Verdana;fontSize=12;edgeStyle=elbowEdgeStyle;elbow=vertical;dashed=1;" edge="1" parent="7baba1c4bc27f4b0-2">
          <mxGeometry x="-0.4804" relative="1" as="geometry">
            <mxPoint x="50" y="550" as="sourcePoint" />
            <mxPoint x="-84.00000000000003" y="550.1390909090912" as="targetPoint" />
            <mxPoint x="1" as="offset" />
          </mxGeometry>
        </mxCell>
        <mxCell id="7baba1c4bc27f4b0-3" value="LineCheckBlocksController" style="shape=umlLifeline;perimeter=lifelinePerimeter;whiteSpace=wrap;html=1;container=1;collapsible=0;recursiveResize=0;outlineConnect=0;rounded=1;shadow=0;comic=0;labelBackgroundColor=none;strokeWidth=1;fontFamily=Verdana;fontSize=12;align=center;" parent="1" vertex="1">
          <mxGeometry x="520" y="80" width="190" height="580" as="geometry" />
        </mxCell>
        <mxCell id="7baba1c4bc27f4b0-13" value="" style="html=1;points=[];perimeter=orthogonalPerimeter;rounded=0;shadow=0;comic=0;labelBackgroundColor=none;strokeWidth=1;fontFamily=Verdana;fontSize=12;align=center;" parent="7baba1c4bc27f4b0-3" vertex="1">
          <mxGeometry x="89" y="144" width="10" height="396" as="geometry" />
        </mxCell>
        <mxCell id="zbMBryDadHEK504ndSh6-29" value="Loop" style="shape=umlFrame;whiteSpace=wrap;html=1;pointerEvents=0;" vertex="1" parent="7baba1c4bc27f4b0-3">
          <mxGeometry x="10" y="397" width="300" height="123" as="geometry" />
        </mxCell>
        <mxCell id="7baba1c4bc27f4b0-8" value="_currentScene:&lt;br&gt;GameScene" style="shape=umlLifeline;perimeter=lifelinePerimeter;whiteSpace=wrap;html=1;container=1;collapsible=0;recursiveResize=0;outlineConnect=0;rounded=1;shadow=0;comic=0;labelBackgroundColor=none;strokeWidth=1;fontFamily=Verdana;fontSize=12;align=center;" parent="1" vertex="1">
          <mxGeometry x="100" y="80" width="100" height="580" as="geometry" />
        </mxCell>
        <mxCell id="7baba1c4bc27f4b0-9" value="" style="html=1;points=[];perimeter=orthogonalPerimeter;rounded=0;shadow=0;comic=0;labelBackgroundColor=none;strokeWidth=1;fontFamily=Verdana;fontSize=12;align=center;" parent="7baba1c4bc27f4b0-8" vertex="1">
          <mxGeometry x="45" y="58" width="10" height="512" as="geometry" />
        </mxCell>
        <mxCell id="zbMBryDadHEK504ndSh6-3" value="Update()" style="html=1;verticalAlign=bottom;endArrow=block;entryX=0;entryY=0;labelBackgroundColor=none;fontFamily=Verdana;fontSize=12;edgeStyle=elbowEdgeStyle;elbow=vertical;" edge="1" parent="7baba1c4bc27f4b0-8">
          <mxGeometry relative="1" as="geometry">
            <mxPoint x="-85" y="58" as="sourcePoint" />
            <mxPoint x="45" y="58" as="targetPoint" />
          </mxGeometry>
        </mxCell>
        <mxCell id="7baba1c4bc27f4b0-11" value="Update()" style="html=1;verticalAlign=bottom;endArrow=block;entryX=0;entryY=0;labelBackgroundColor=none;fontFamily=Verdana;fontSize=12;edgeStyle=elbowEdgeStyle;elbow=vertical;" parent="1" source="7baba1c4bc27f4b0-9" target="7baba1c4bc27f4b0-10" edge="1">
          <mxGeometry relative="1" as="geometry">
            <mxPoint x="220" y="168" as="sourcePoint" />
          </mxGeometry>
        </mxCell>
        <mxCell id="7baba1c4bc27f4b0-14" value="OnNotify" style="html=1;verticalAlign=bottom;endArrow=block;entryX=0;entryY=0;labelBackgroundColor=none;fontFamily=Verdana;fontSize=12;edgeStyle=elbowEdgeStyle;elbow=vertical;" parent="1" edge="1">
          <mxGeometry x="-0.4804" relative="1" as="geometry">
            <mxPoint x="300" y="225.1428571428571" as="sourcePoint" />
            <mxPoint x="609" y="225.00000000000023" as="targetPoint" />
            <mxPoint x="1" as="offset" />
          </mxGeometry>
        </mxCell>
        <mxCell id="7baba1c4bc27f4b0-41" value="Singleton&lt;br&gt;Inherit from ObserverbleSubject" style="shape=note;whiteSpace=wrap;html=1;size=14;verticalAlign=top;align=left;spacingTop=-6;rounded=0;shadow=0;comic=0;labelBackgroundColor=none;strokeWidth=1;fontFamily=Verdana;fontSize=12" parent="1" vertex="1">
          <mxGeometry x="240" y="20" width="120" height="45" as="geometry" />
        </mxCell>
        <mxCell id="zbMBryDadHEK504ndSh6-2" value="Implement the IObserver interface" style="shape=note;whiteSpace=wrap;html=1;size=14;verticalAlign=top;align=left;spacingTop=-6;rounded=0;shadow=0;comic=0;labelBackgroundColor=none;strokeWidth=1;fontFamily=Verdana;fontSize=12" vertex="1" parent="1">
          <mxGeometry x="520" y="20" width="120" height="45" as="geometry" />
        </mxCell>
        <mxCell id="zbMBryDadHEK504ndSh6-5" value="" style="html=1;verticalAlign=bottom;endArrow=block;labelBackgroundColor=none;fontFamily=Verdana;fontSize=12;elbow=vertical;edgeStyle=orthogonalEdgeStyle;curved=1;entryX=1;entryY=0.286;entryPerimeter=0;exitX=1.038;exitY=0.345;exitPerimeter=0;" edge="1" parent="1">
          <mxGeometry relative="1" as="geometry">
            <mxPoint x="295.00333333333344" y="167.99999999999994" as="sourcePoint" />
            <mxPoint x="300.00333333333344" y="206.33333333333331" as="targetPoint" />
            <Array as="points">
              <mxPoint x="345" y="168" />
              <mxPoint x="345" y="206" />
            </Array>
          </mxGeometry>
        </mxCell>
        <mxCell id="zbMBryDadHEK504ndSh6-6" value="Notify()" style="text;html=1;strokeColor=none;fillColor=none;align=center;verticalAlign=middle;whiteSpace=wrap;rounded=0;" vertex="1" parent="1">
          <mxGeometry x="300" y="147" width="60" height="30" as="geometry" />
        </mxCell>
        <mxCell id="zbMBryDadHEK504ndSh6-8" value="Loop" style="shape=umlFrame;whiteSpace=wrap;html=1;pointerEvents=0;" vertex="1" parent="1">
          <mxGeometry x="490" y="235" width="360" height="375" as="geometry" />
        </mxCell>
        <mxCell id="zbMBryDadHEK504ndSh6-9" value="&lt;i&gt;&lt;font style=&quot;font-size: 10px;&quot;&gt;All row in BsC.BlocksIndex[, ]&lt;/font&gt;&lt;/i&gt;" style="text;html=1;strokeColor=none;fillColor=none;align=center;verticalAlign=middle;whiteSpace=wrap;rounded=0;" vertex="1" parent="1">
          <mxGeometry x="500" y="265" width="90" height="30" as="geometry" />
        </mxCell>
        <mxCell id="zbMBryDadHEK504ndSh6-10" value="Loop" style="shape=umlFrame;whiteSpace=wrap;html=1;pointerEvents=0;" vertex="1" parent="1">
          <mxGeometry x="520" y="301" width="310" height="129" as="geometry" />
        </mxCell>
        <mxCell id="zbMBryDadHEK504ndSh6-11" value="&lt;i style=&quot;font-size: 9px;&quot;&gt;&lt;font style=&quot;font-size: 9px;&quot;&gt;All column in BsC.BlocksIndex&lt;br&gt;[row, ]&lt;/font&gt;&lt;/i&gt;" style="text;html=1;strokeColor=none;fillColor=none;align=center;verticalAlign=middle;whiteSpace=wrap;rounded=0;" vertex="1" parent="1">
          <mxGeometry x="514" y="336" width="90" height="30" as="geometry" />
        </mxCell>
        <mxCell id="zbMBryDadHEK504ndSh6-12" value="" style="html=1;points=[];perimeter=orthogonalPerimeter;rounded=0;shadow=0;comic=0;labelBackgroundColor=none;strokeWidth=1;fontFamily=Verdana;fontSize=12;align=center;" vertex="1" parent="1">
          <mxGeometry x="616" y="338" width="10" height="50" as="geometry" />
        </mxCell>
        <mxCell id="zbMBryDadHEK504ndSh6-13" value="" style="html=1;verticalAlign=bottom;endArrow=block;labelBackgroundColor=none;fontFamily=Verdana;fontSize=12;elbow=vertical;edgeStyle=orthogonalEdgeStyle;curved=1;entryX=1;entryY=0.286;entryPerimeter=0;exitX=1.038;exitY=0.345;exitPerimeter=0;" edge="1" parent="1">
          <mxGeometry relative="1" as="geometry">
            <mxPoint x="616.0033333333334" y="316.99999999999994" as="sourcePoint" />
            <mxPoint x="621.0033333333334" y="355.3333333333333" as="targetPoint" />
            <Array as="points">
              <mxPoint x="666" y="317" />
              <mxPoint x="666" y="355" />
            </Array>
          </mxGeometry>
        </mxCell>
        <mxCell id="zbMBryDadHEK504ndSh6-14" value="BlocksIndex&lt;br&gt;[row, col] == 1" style="text;html=1;strokeColor=none;fillColor=none;align=center;verticalAlign=middle;whiteSpace=wrap;rounded=0;" vertex="1" parent="1">
          <mxGeometry x="629" y="308" width="150" height="23" as="geometry" />
        </mxCell>
        <mxCell id="zbMBryDadHEK504ndSh6-15" value="" style="html=1;verticalAlign=bottom;endArrow=block;labelBackgroundColor=none;fontFamily=Verdana;fontSize=12;elbow=vertical;edgeStyle=orthogonalEdgeStyle;curved=1;dashed=1;" edge="1" parent="1">
          <mxGeometry relative="1" as="geometry">
            <mxPoint x="626" y="381" as="sourcePoint" />
            <mxPoint x="629" y="419" as="targetPoint" />
            <Array as="points">
              <mxPoint x="662" y="381" />
              <mxPoint x="662" y="419" />
            </Array>
          </mxGeometry>
        </mxCell>
        <mxCell id="zbMBryDadHEK504ndSh6-16" value="true" style="text;html=1;strokeColor=none;fillColor=none;align=center;verticalAlign=middle;whiteSpace=wrap;rounded=0;" vertex="1" parent="1">
          <mxGeometry x="599" y="389" width="150" height="23" as="geometry" />
        </mxCell>
        <mxCell id="zbMBryDadHEK504ndSh6-17" value="" style="html=1;points=[];perimeter=orthogonalPerimeter;rounded=0;shadow=0;comic=0;labelBackgroundColor=none;strokeWidth=1;fontFamily=Verdana;fontSize=12;align=center;" vertex="1" parent="1">
          <mxGeometry x="616" y="402" width="10" height="20" as="geometry" />
        </mxCell>
        <mxCell id="zbMBryDadHEK504ndSh6-19" value="" style="html=1;verticalAlign=bottom;endArrow=block;labelBackgroundColor=none;fontFamily=Verdana;fontSize=12;elbow=vertical;edgeStyle=orthogonalEdgeStyle;curved=1;dashed=1;exitX=1.162;exitY=0.666;exitDx=0;exitDy=0;exitPerimeter=0;" edge="1" parent="1" source="zbMBryDadHEK504ndSh6-12">
          <mxGeometry relative="1" as="geometry">
            <mxPoint x="642.48" y="385" as="sourcePoint" />
            <mxPoint x="620" y="620" as="targetPoint" />
            <Array as="points">
              <mxPoint x="628" y="370" />
              <mxPoint x="816" y="370" />
              <mxPoint x="816" y="620" />
              <mxPoint x="620" y="620" />
            </Array>
          </mxGeometry>
        </mxCell>
        <mxCell id="zbMBryDadHEK504ndSh6-20" value="false" style="text;html=1;strokeColor=none;fillColor=none;align=center;verticalAlign=middle;whiteSpace=wrap;rounded=0;" vertex="1" parent="1">
          <mxGeometry x="706" y="359.5" width="150" height="23" as="geometry" />
        </mxCell>
        <mxCell id="zbMBryDadHEK504ndSh6-23" value="&lt;font style=&quot;font-size: 10px;&quot;&gt;BlocksIndex.Remove&lt;br&gt;(YIndex = row)&lt;/font&gt;" style="text;html=1;strokeColor=none;fillColor=none;align=center;verticalAlign=middle;whiteSpace=wrap;rounded=0;" vertex="1" parent="1">
          <mxGeometry x="370" y="422" width="81" height="23" as="geometry" />
        </mxCell>
        <mxCell id="zbMBryDadHEK504ndSh6-26" value="&lt;span style=&quot;font-size: 10px;&quot;&gt;BsC.Score++&lt;/span&gt;" style="text;html=1;strokeColor=none;fillColor=none;align=center;verticalAlign=middle;whiteSpace=wrap;rounded=0;" vertex="1" parent="1">
          <mxGeometry x="370" y="450" width="81" height="23" as="geometry" />
        </mxCell>
        <mxCell id="zbMBryDadHEK504ndSh6-27" value="" style="html=1;verticalAlign=bottom;endArrow=block;entryX=0;entryY=0;labelBackgroundColor=none;fontFamily=Verdana;fontSize=12;edgeStyle=elbowEdgeStyle;elbow=vertical;exitX=-0.109;exitY=0.61;exitDx=0;exitDy=0;exitPerimeter=0;" edge="1" parent="1">
          <mxGeometry x="-0.4804" relative="1" as="geometry">
            <mxPoint x="607.9099999999999" y="447.5600000000002" as="sourcePoint" />
            <mxPoint x="295" y="447.13909090909124" as="targetPoint" />
            <mxPoint x="1" as="offset" />
          </mxGeometry>
        </mxCell>
        <mxCell id="zbMBryDadHEK504ndSh6-28" value="" style="html=1;verticalAlign=bottom;endArrow=block;entryX=0;entryY=0;labelBackgroundColor=none;fontFamily=Verdana;fontSize=12;edgeStyle=elbowEdgeStyle;elbow=vertical;exitX=-0.109;exitY=0.61;exitDx=0;exitDy=0;exitPerimeter=0;" edge="1" parent="1">
          <mxGeometry x="-0.4804" relative="1" as="geometry">
            <mxPoint x="607.9099999999999" y="471.5600000000002" as="sourcePoint" />
            <mxPoint x="295" y="471.13909090909124" as="targetPoint" />
            <mxPoint x="1" as="offset" />
          </mxGeometry>
        </mxCell>
        <mxCell id="zbMBryDadHEK504ndSh6-30" value="&lt;i style=&quot;font-size: 9px;&quot;&gt;&lt;font style=&quot;font-size: 9px;&quot;&gt;block in BsC.BlocksIndex&lt;br&gt;&lt;/font&gt;&lt;/i&gt;" style="text;html=1;strokeColor=none;fillColor=none;align=center;verticalAlign=middle;whiteSpace=wrap;rounded=0;" vertex="1" parent="1">
          <mxGeometry x="522" y="508" width="90" height="30" as="geometry" />
        </mxCell>
        <mxCell id="zbMBryDadHEK504ndSh6-31" value="" style="html=1;points=[];perimeter=orthogonalPerimeter;rounded=0;shadow=0;comic=0;labelBackgroundColor=none;strokeWidth=1;fontFamily=Verdana;fontSize=12;align=center;" vertex="1" parent="1">
          <mxGeometry x="616" y="504" width="10" height="50" as="geometry" />
        </mxCell>
        <mxCell id="zbMBryDadHEK504ndSh6-32" value="" style="html=1;verticalAlign=bottom;endArrow=block;labelBackgroundColor=none;fontFamily=Verdana;fontSize=12;elbow=vertical;edgeStyle=orthogonalEdgeStyle;curved=1;entryX=1;entryY=0.286;entryPerimeter=0;exitX=1.038;exitY=0.345;exitPerimeter=0;" edge="1" parent="1">
          <mxGeometry relative="1" as="geometry">
            <mxPoint x="616.0033333333334" y="482.99999999999994" as="sourcePoint" />
            <mxPoint x="621.0033333333334" y="521.3333333333333" as="targetPoint" />
            <Array as="points">
              <mxPoint x="666" y="483" />
              <mxPoint x="666" y="521" />
            </Array>
          </mxGeometry>
        </mxCell>
        <mxCell id="zbMBryDadHEK504ndSh6-33" value="block.YIndex &amp;lt; row" style="text;html=1;strokeColor=none;fillColor=none;align=center;verticalAlign=middle;whiteSpace=wrap;rounded=0;" vertex="1" parent="1">
          <mxGeometry x="629" y="485" width="150" height="23" as="geometry" />
        </mxCell>
        <mxCell id="zbMBryDadHEK504ndSh6-34" value="" style="html=1;verticalAlign=bottom;endArrow=block;labelBackgroundColor=none;fontFamily=Verdana;fontSize=12;elbow=vertical;edgeStyle=orthogonalEdgeStyle;curved=1;dashed=1;" edge="1" parent="1">
          <mxGeometry relative="1" as="geometry">
            <mxPoint x="626" y="547" as="sourcePoint" />
            <mxPoint x="629" y="585" as="targetPoint" />
            <Array as="points">
              <mxPoint x="662" y="547" />
              <mxPoint x="662" y="585" />
            </Array>
          </mxGeometry>
        </mxCell>
        <mxCell id="zbMBryDadHEK504ndSh6-35" value="true" style="text;html=1;strokeColor=none;fillColor=none;align=center;verticalAlign=middle;whiteSpace=wrap;rounded=0;" vertex="1" parent="1">
          <mxGeometry x="599" y="555" width="150" height="23" as="geometry" />
        </mxCell>
        <mxCell id="zbMBryDadHEK504ndSh6-36" value="" style="html=1;points=[];perimeter=orthogonalPerimeter;rounded=0;shadow=0;comic=0;labelBackgroundColor=none;strokeWidth=1;fontFamily=Verdana;fontSize=12;align=center;" vertex="1" parent="1">
          <mxGeometry x="616" y="568" width="10" height="20" as="geometry" />
        </mxCell>
        <mxCell id="zbMBryDadHEK504ndSh6-37" value="" style="html=1;verticalAlign=bottom;endArrow=block;entryX=0;entryY=0;labelBackgroundColor=none;fontFamily=Verdana;fontSize=12;edgeStyle=elbowEdgeStyle;elbow=vertical;exitX=-0.109;exitY=0.61;exitDx=0;exitDy=0;exitPerimeter=0;" edge="1" parent="1">
          <mxGeometry x="-0.4804" relative="1" as="geometry">
            <mxPoint x="609.9999999999999" y="592.5600000000002" as="sourcePoint" />
            <mxPoint x="297.09" y="592.1390909090912" as="targetPoint" />
            <mxPoint x="1" as="offset" />
          </mxGeometry>
        </mxCell>
        <mxCell id="zbMBryDadHEK504ndSh6-38" value="&lt;span style=&quot;font-size: 10px;&quot;&gt;block.MoveDown()&lt;/span&gt;" style="text;html=1;strokeColor=none;fillColor=none;align=center;verticalAlign=middle;whiteSpace=wrap;rounded=0;" vertex="1" parent="1">
          <mxGeometry x="370" y="565" width="81" height="23" as="geometry" />
        </mxCell>
        <mxCell id="zbMBryDadHEK504ndSh6-39" value="" style="html=1;verticalAlign=bottom;endArrow=block;entryX=0;entryY=0;labelBackgroundColor=none;fontFamily=Verdana;fontSize=12;edgeStyle=elbowEdgeStyle;elbow=vertical;exitX=-0.109;exitY=0.61;exitDx=0;exitDy=0;exitPerimeter=0;dashed=1;" edge="1" parent="1">
          <mxGeometry x="-0.4804" relative="1" as="geometry">
            <mxPoint x="608.9999999999999" y="620.5600000000002" as="sourcePoint" />
            <mxPoint x="296.09" y="620.1390909090912" as="targetPoint" />
            <mxPoint x="1" as="offset" />
          </mxGeometry>
        </mxCell>
        <mxCell id="zbMBryDadHEK504ndSh6-40" value="&lt;span style=&quot;font-size: 10px;&quot;&gt;return&lt;/span&gt;" style="text;html=1;strokeColor=none;fillColor=none;align=center;verticalAlign=middle;whiteSpace=wrap;rounded=0;" vertex="1" parent="1">
          <mxGeometry x="419" y="617" width="81" height="23" as="geometry" />
        </mxCell>
        <mxCell id="zbMBryDadHEK504ndSh6-42" value="&lt;font style=&quot;font-size: 9px;&quot;&gt;_score = BsC.Score*(3/ _timeOfSteps*(600/_gamePlayTime)&lt;/font&gt;" style="text;html=1;strokeColor=none;fillColor=none;align=center;verticalAlign=middle;whiteSpace=wrap;rounded=0;" vertex="1" parent="1">
          <mxGeometry x="174" y="594" width="96" height="23" as="geometry" />
        </mxCell>
        <mxCell id="zbMBryDadHEK504ndSh6-43" value="" style="html=1;verticalAlign=bottom;endArrow=block;labelBackgroundColor=none;fontFamily=Verdana;fontSize=12;edgeStyle=elbowEdgeStyle;elbow=vertical;dashed=1;" edge="1" parent="1">
          <mxGeometry x="-0.4804" relative="1" as="geometry">
            <mxPoint x="144" y="644" as="sourcePoint" />
            <mxPoint x="50" y="644" as="targetPoint" />
            <mxPoint x="1" as="offset" />
          </mxGeometry>
        </mxCell>
        <mxCell id="zbMBryDadHEK504ndSh6-44" value="&lt;font style=&quot;font-size: 9px;&quot;&gt;_score&lt;/font&gt;" style="text;html=1;strokeColor=none;fillColor=none;align=center;verticalAlign=middle;whiteSpace=wrap;rounded=0;" vertex="1" parent="1">
          <mxGeometry x="50" y="621" width="96" height="23" as="geometry" />
        </mxCell>
        <mxCell id="zbMBryDadHEK504ndSh6-45" value="Horizontal Container" style="swimlane;horizontal=0;whiteSpace=wrap;html=1;" vertex="1" parent="1">
          <mxGeometry x="540" y="100" width="200" height="200" as="geometry" />
        </mxCell>
      </root>
    </mxGraphModel>
  </diagram>
</mxfile>
